<svg width="220" height="185" viewBox="0 0 220 185" fill="none" xmlns="http://www.w3.org/2000/svg">
<path d="M207.021 160L205.651 155.149C203.027 158.999 199.375 160.924 194.696 160.924C190.872 160.924 187.734 159.974 185.28 158.075C182.884 156.124 181.686 153.404 181.686 149.913C181.686 147.757 182.37 145.883 183.74 144.292C185.166 142.649 187.106 141.494 189.56 140.827C192.755 140.006 197.691 139.544 204.367 139.441C204.367 136.053 204.196 134.256 203.854 134.051C203.569 133.846 202.656 133.743 201.115 133.743C200.145 133.743 198.804 133.794 197.092 133.897C194.353 134 190.644 134.282 185.965 134.744C185.509 131.972 185.166 128.995 184.938 125.812C187.962 125.247 191.129 124.785 194.439 124.426C197.748 124.015 200.716 123.81 203.34 123.81C207.905 123.81 211.329 124.503 213.611 125.889C215.894 127.224 217.377 128.995 218.062 131.202C218.747 133.409 219.061 136.207 219.004 139.595L218.918 150.914L219.175 160H207.021ZM199.66 152.3C201.143 152.3 202.713 152.043 204.367 151.53V145.832H203.683C199.46 145.832 197.121 146.037 196.664 146.448C196.379 146.705 196.151 147.09 195.979 147.603C195.865 148.116 195.808 148.604 195.808 149.066C195.808 150.298 196.122 151.145 196.75 151.607C197.377 152.069 198.347 152.3 199.66 152.3Z" fill="#EA453A"/>
<path d="M180.454 160H164.534L156.402 145.601C155.604 144.112 154.548 143.163 153.236 142.752V160H138.599V113.8L153.236 113.261V139.518C154.605 139.005 155.775 137.952 156.745 136.361L164.02 124.58L180.026 124.503L171.723 136.515C170.411 138.414 168.984 139.929 167.444 141.058C168.756 142.341 170.24 144.292 171.895 146.91L180.454 160Z" fill="#EA453A"/>
<path d="M130.297 126.813C130.811 127.378 131.182 128.789 131.41 131.048C131.695 133.307 131.838 136.746 131.838 141.366V160H117.202V141.52V138.363C117.202 136.72 117.059 135.694 116.774 135.283C116.317 134.77 115.262 134.513 113.607 134.513C112.808 134.513 112.209 134.539 111.81 134.59C110.212 134.641 108.557 134.975 106.845 135.591V160H92.209V124.58H104.106L105.733 130.509C109.841 126.043 114.748 123.81 120.454 123.81C122.509 123.81 124.42 124.067 126.189 124.58C128.015 125.093 129.385 125.838 130.297 126.813Z" fill="#EA453A"/>
<path d="M65.8232 161.001C58.9758 161.001 53.8403 159.564 50.4166 156.689C47.05 153.763 45.3667 149.169 45.3667 142.906C45.3667 139.467 45.709 136.464 46.3938 133.897C47.1356 131.279 48.02 129.457 49.0471 128.43C50.3595 127.095 52.7561 125.992 56.2369 125.119C59.7747 124.246 63.0842 123.81 66.1656 123.81C73.5265 123.81 78.7761 125.222 81.9145 128.045C85.0529 130.868 86.6221 135.386 86.6221 141.597C86.6221 148.27 84.9388 153.173 81.5721 156.304C78.2055 159.435 72.9559 161.001 65.8232 161.001ZM66.08 151.992C68.3054 151.992 69.7604 151.299 70.4452 149.913C71.1299 148.476 71.4723 145.96 71.4723 142.367C71.4723 139.852 71.3296 137.927 71.0443 136.592C70.759 135.206 70.2169 134.205 69.4181 133.589C68.6763 132.922 67.5065 132.588 65.9088 132.588C63.6263 132.588 62.3139 132.768 61.9715 133.127C61.515 133.486 61.1441 134.616 60.8588 136.515C60.5735 138.414 60.4309 140.391 60.4309 142.444C60.4309 145.935 60.8018 148.399 61.5436 149.836C62.3424 151.273 63.8546 151.992 66.08 151.992Z" fill="#EA453A"/>
<path d="M29.8029 160H14.3963V125.735H0.615997V116.11H43.5833V125.735H29.8029V160Z" fill="#EA453A"/>
<path d="M162.859 184.716C162.005 184.716 161.265 184.452 160.638 183.924C160.02 183.396 159.545 182.628 159.214 181.62C158.883 180.6 158.717 179.364 158.717 177.912C158.717 176.448 158.887 175.2 159.227 174.168C159.567 173.136 160.046 172.35 160.664 171.81C161.282 171.27 162.018 171 162.872 171C163.725 171 164.457 171.27 165.067 171.81C165.685 172.35 166.16 173.13 166.491 174.15C166.83 175.17 167 176.418 167 177.894C167 179.346 166.835 180.582 166.504 181.602C166.173 182.61 165.694 183.384 165.067 183.924C164.448 184.452 163.712 184.716 162.859 184.716ZM162.885 183.402C163.825 183.402 164.527 182.958 164.988 182.07C165.458 181.17 165.694 179.784 165.694 177.912C165.694 176.004 165.454 174.594 164.975 173.682C164.505 172.77 163.804 172.314 162.872 172.314C161.931 172.314 161.221 172.776 160.742 173.7C160.263 174.612 160.024 176.016 160.024 177.912C160.024 179.772 160.263 181.152 160.742 182.052C161.221 182.952 161.936 183.402 162.885 183.402Z" fill="#3A3D44"/>
<path d="M157.091 184.194C157.117 184.278 157.112 184.356 157.078 184.428C157.052 184.5 157.008 184.536 156.947 184.536H155.993C155.898 184.536 155.828 184.464 155.784 184.32L154.099 178.65C154.056 178.518 153.951 178.452 153.786 178.452H151.578C151.517 178.452 151.473 178.47 151.447 178.506C151.43 178.542 151.421 178.59 151.421 178.65V184.248C151.421 184.44 151.347 184.536 151.199 184.536H150.35C150.28 184.536 150.232 184.518 150.206 184.482C150.18 184.434 150.167 184.374 150.167 184.302V171.432C150.167 171.264 150.219 171.18 150.324 171.18H153.968C154.996 171.18 155.793 171.474 156.359 172.062C156.934 172.638 157.221 173.496 157.221 174.636C157.221 175.32 157.126 175.902 156.934 176.382C156.742 176.85 156.498 177.228 156.202 177.516C155.915 177.792 155.619 177.996 155.314 178.128C155.244 178.14 155.227 178.2 155.262 178.308L157.091 184.194ZM153.603 177.192C154.369 177.192 154.944 177 155.327 176.616C155.719 176.232 155.915 175.626 155.915 174.798C155.915 173.994 155.741 173.4 155.392 173.016C155.053 172.632 154.556 172.44 153.903 172.44H151.604C151.482 172.44 151.421 172.506 151.421 172.638V176.958C151.421 177.114 151.46 177.192 151.539 177.192H153.603Z" fill="#3A3D44"/>
<path d="M148.189 175.068C148.189 175.956 148.041 176.688 147.744 177.264C147.448 177.84 147.043 178.266 146.529 178.542C146.016 178.818 145.419 178.956 144.74 178.956H142.519C142.44 178.956 142.401 179.01 142.401 179.118V184.266C142.401 184.446 142.336 184.536 142.205 184.536H141.317C141.256 184.536 141.212 184.518 141.186 184.482C141.16 184.446 141.147 184.386 141.147 184.302V171.432C141.147 171.264 141.199 171.18 141.304 171.18H144.596C145.284 171.18 145.898 171.312 146.438 171.576C146.978 171.84 147.405 172.26 147.718 172.836C148.032 173.412 148.189 174.156 148.189 175.068ZM146.908 175.014C146.908 174.402 146.808 173.91 146.608 173.538C146.416 173.166 146.142 172.902 145.785 172.746C145.436 172.578 145.018 172.494 144.531 172.494H142.571C142.458 172.494 142.401 172.566 142.401 172.71V177.39C142.401 177.558 142.44 177.642 142.519 177.642H144.622C145.31 177.642 145.863 177.432 146.281 177.012C146.699 176.592 146.908 175.926 146.908 175.014Z" fill="#3A3D44"/>
<path d="M128.313 184.536C128.26 184.536 128.221 184.512 128.195 184.464C128.178 184.404 128.178 184.326 128.195 184.23L131.579 171.432C131.605 171.348 131.635 171.288 131.67 171.252C131.705 171.204 131.762 171.18 131.84 171.18H132.859C133.016 171.18 133.116 171.27 133.159 171.45L136.504 184.23C136.521 184.302 136.517 184.374 136.491 184.446C136.473 184.506 136.434 184.536 136.373 184.536H135.446C135.341 184.536 135.271 184.476 135.237 184.356L134.335 180.864C134.318 180.816 134.3 180.78 134.283 180.756C134.266 180.732 134.231 180.72 134.178 180.72H130.377C130.298 180.72 130.246 180.768 130.22 180.864L129.293 184.374C129.284 184.422 129.262 184.464 129.227 184.5C129.201 184.524 129.158 184.536 129.097 184.536H128.313ZM133.839 179.352C133.943 179.352 133.978 179.274 133.943 179.118L132.376 173.196C132.341 173.088 132.306 173.034 132.271 173.034C132.245 173.034 132.219 173.088 132.193 173.196L130.599 179.154C130.555 179.286 130.581 179.352 130.677 179.352H133.839Z" fill="#3A3D44"/>
<path d="M117.864 171.432C117.864 171.264 117.916 171.18 118.021 171.18H123.887C123.974 171.18 124.017 171.246 124.017 171.378V172.296C124.017 172.44 123.961 172.512 123.848 172.512H119.288C119.175 172.512 119.118 172.584 119.118 172.728V176.94C119.118 177.072 119.166 177.138 119.262 177.138H122.646C122.741 177.138 122.789 177.204 122.789 177.336V178.29C122.789 178.338 122.781 178.38 122.763 178.416C122.746 178.44 122.707 178.452 122.646 178.452H119.262C119.166 178.452 119.118 178.518 119.118 178.65V183.024C119.118 183.144 119.162 183.204 119.249 183.204H124.043C124.139 183.204 124.187 183.264 124.187 183.384V184.338C124.187 184.398 124.174 184.446 124.148 184.482C124.131 184.518 124.096 184.536 124.043 184.536H118.047C117.925 184.536 117.864 184.452 117.864 184.284V171.432Z" fill="#3A3D44"/>
<path d="M116.02 184.284C116.046 184.356 116.05 184.416 116.033 184.464C116.024 184.512 115.994 184.536 115.942 184.536H114.87C114.748 184.536 114.67 184.482 114.635 184.374L111.748 177.732C111.696 177.624 111.63 177.63 111.552 177.75L110.05 180.108C109.989 180.204 109.958 180.312 109.958 180.432V184.266C109.958 184.446 109.884 184.536 109.736 184.536H108.9C108.83 184.536 108.778 184.518 108.743 184.482C108.717 184.446 108.704 184.386 108.704 184.302V171.396C108.704 171.252 108.752 171.18 108.848 171.18H109.815C109.91 171.18 109.958 171.252 109.958 171.396V178.002C109.958 178.074 109.967 178.116 109.984 178.128C110.002 178.128 110.032 178.098 110.076 178.038L114.361 171.342C114.396 171.282 114.431 171.24 114.465 171.216C114.5 171.192 114.552 171.18 114.622 171.18H115.524C115.602 171.18 115.65 171.21 115.667 171.27C115.685 171.318 115.672 171.372 115.628 171.432L112.584 176.112C112.549 176.184 112.549 176.262 112.584 176.346L116.02 184.284Z" fill="#3A3D44"/>
<path d="M106.012 171.18C106.117 171.18 106.169 171.258 106.169 171.414V184.23C106.169 184.35 106.152 184.434 106.117 184.482C106.082 184.518 106.021 184.536 105.934 184.536H105.111C105.033 184.536 104.98 184.518 104.954 184.482C104.928 184.446 104.915 184.38 104.915 184.284V171.432C104.915 171.264 104.967 171.18 105.072 171.18H106.012Z" fill="#3A3D44"/>
<path d="M97.0563 171.432C97.0563 171.264 97.1086 171.18 97.2131 171.18H98.1537C98.2582 171.18 98.3105 171.258 98.3105 171.414V183.024C98.3105 183.144 98.354 183.204 98.4411 183.204H102.961C103.066 183.204 103.118 183.264 103.118 183.384V184.338C103.118 184.398 103.105 184.446 103.079 184.482C103.053 184.518 103.014 184.536 102.961 184.536H97.2392C97.1696 184.536 97.1217 184.518 97.0955 184.482C97.0694 184.434 97.0563 184.368 97.0563 184.284V171.432Z" fill="#3A3D44"/>
<path d="M86.0592 171.432C86.0592 171.264 86.1114 171.18 86.2159 171.18H92.0816C92.1687 171.18 92.2123 171.246 92.2123 171.378V172.296C92.2123 172.44 92.1557 172.512 92.0425 172.512H87.4831C87.3699 172.512 87.3133 172.584 87.3133 172.728V176.94C87.3133 177.072 87.3612 177.138 87.457 177.138H90.8406C90.9364 177.138 90.9843 177.204 90.9843 177.336V178.29C90.9843 178.338 90.9756 178.38 90.9581 178.416C90.9407 178.44 90.9015 178.452 90.8406 178.452H87.457C87.3612 178.452 87.3133 178.518 87.3133 178.65V183.024C87.3133 183.144 87.3569 183.204 87.444 183.204H92.2384C92.3342 183.204 92.3821 183.264 92.3821 183.384V184.338C92.3821 184.398 92.3691 184.446 92.3429 184.482C92.3255 184.518 92.2907 184.536 92.2384 184.536H86.2421C86.1201 184.536 86.0592 184.452 86.0592 184.284V171.432Z" fill="#3A3D44"/>
<path d="M76.8272 171.18C76.8881 171.18 77.0144 171.18 77.206 171.18C77.3976 171.18 77.6067 171.186 77.8331 171.198C78.0595 171.198 78.2686 171.198 78.4602 171.198C78.6518 171.198 78.7868 171.198 78.8651 171.198C80.0757 171.222 81.0512 171.486 81.7915 171.99C82.5405 172.494 83.0848 173.226 83.4245 174.186C83.7728 175.146 83.947 176.334 83.947 177.75C83.947 179.25 83.7598 180.504 83.3853 181.512C83.0108 182.52 82.4359 183.276 81.6608 183.78C80.8857 184.284 79.9103 184.536 78.7345 184.536H76.8141C76.6922 184.536 76.6312 184.44 76.6312 184.248V171.432C76.6312 171.348 76.6443 171.288 76.6704 171.252C76.7052 171.204 76.7575 171.18 76.8272 171.18ZM78.016 172.494C77.9289 172.494 77.8853 172.578 77.8853 172.746V183.042C77.8853 183.174 77.9376 183.24 78.0421 183.24H78.5385C79.5053 183.24 80.2891 183.066 80.89 182.718C81.491 182.358 81.9308 181.782 82.2095 180.99C82.4969 180.198 82.6406 179.148 82.6406 177.84C82.6406 176.472 82.4926 175.404 82.1964 174.636C81.909 173.856 81.4649 173.304 80.8639 172.98C80.2717 172.656 79.5183 172.494 78.6039 172.494H78.016Z" fill="#3A3D44"/>
<path d="M70.3779 184.716C69.5244 184.716 68.7841 184.452 68.157 183.924C67.5386 183.396 67.064 182.628 66.733 181.62C66.4021 180.6 66.2366 179.364 66.2366 177.912C66.2366 176.448 66.4064 175.2 66.7461 174.168C67.0858 173.136 67.5648 172.35 68.1831 171.81C68.8015 171.27 69.5374 171 70.3909 171C71.2444 171 71.976 171.27 72.5857 171.81C73.204 172.35 73.6787 173.13 74.0096 174.15C74.3493 175.17 74.5191 176.418 74.5191 177.894C74.5191 179.346 74.3537 180.582 74.0227 181.602C73.6918 182.61 73.2127 183.384 72.5857 183.924C71.9673 184.452 71.2314 184.716 70.3779 184.716ZM70.404 183.402C71.3446 183.402 72.0457 182.958 72.5073 182.07C72.9776 181.17 73.2127 179.784 73.2127 177.912C73.2127 176.004 72.9732 174.594 72.4942 173.682C72.0239 172.77 71.3228 172.314 70.3909 172.314C69.4503 172.314 68.7405 172.776 68.2615 173.7C67.7825 174.612 67.543 176.016 67.543 177.912C67.543 179.772 67.7825 181.152 68.2615 182.052C68.7405 182.952 69.4547 183.402 70.404 183.402Z" fill="#3A3D44"/>
<path d="M61.089 171C61.5245 171 61.9425 171.102 62.3431 171.306C62.7525 171.498 63.1183 171.762 63.4405 172.098C63.7628 172.434 64.0284 172.824 64.2374 173.268C64.4464 173.712 64.5771 174.186 64.6293 174.69C64.6468 174.798 64.6468 174.87 64.6293 174.906C64.6206 174.942 64.5901 174.96 64.5379 174.96L63.5581 175.068C63.5145 175.08 63.4841 175.068 63.4666 175.032C63.4492 174.996 63.4362 174.948 63.4275 174.888C63.3055 174.12 63.0399 173.502 62.6306 173.034C62.2299 172.554 61.7291 172.314 61.1282 172.314C60.2224 172.314 59.5257 172.776 59.038 173.7C58.5503 174.624 58.3064 176.016 58.3064 177.876C58.3064 179.676 58.5459 181.038 59.0249 181.962C59.5039 182.886 60.2268 183.348 61.1935 183.348C61.8119 183.348 62.3257 183.144 62.7351 182.736C63.1531 182.328 63.4884 181.674 63.741 180.774C63.7671 180.702 63.8194 180.678 63.8978 180.702L64.6685 180.954C64.6947 180.966 64.7164 180.99 64.7338 181.026C64.7513 181.062 64.7513 181.122 64.7338 181.206C64.6642 181.554 64.5553 181.896 64.4072 182.232C64.2679 182.568 64.0937 182.886 63.8847 183.186C63.6757 183.474 63.4318 183.738 63.1531 183.978C62.8744 184.206 62.5652 184.386 62.2256 184.518C61.8946 184.65 61.5332 184.716 61.1413 184.716C60.279 184.716 59.5344 184.44 58.9073 183.888C58.289 183.336 57.8143 182.544 57.4834 181.512C57.1611 180.48 57 179.256 57 177.84C57 176.424 57.1611 175.206 57.4834 174.186C57.8143 173.154 58.2846 172.368 58.8943 171.828C59.5126 171.276 60.2442 171 61.089 171Z" fill="#3A3D44"/>
<line x1="1" y1="177" x2="51" y2="177" stroke="#3A3D44" stroke-width="2"/>
<line x1="174" y1="177" x2="219" y2="177" stroke="#3A3D44" stroke-width="2"/>
<path d="M59 28.1815L106 2.28353L153 28.1815V77.7526L106 100.773L59 77.7526V28.1815Z" stroke="#EA453A" stroke-width="4"/>
<path d="M73.8904 36.127L106.5 18.1584L139.11 36.127V70.4434L106.5 86.4154L73.8904 70.4434V36.127Z" stroke="#EA453A" stroke-width="3.78082"/>
<line x1="60.9402" y1="29.2348" x2="152.94" y2="78.2348" stroke="#EA453A" stroke-width="4"/>
<line x1="152.925" y1="28.7732" x2="60.9251" y2="76.7732" stroke="#EA453A" stroke-width="4"/>
<line x1="128.82" y1="75.6535" x2="91.9563" y2="93.9302" stroke="#EA453A" stroke-width="4"/>
<line x1="79.9297" y1="73.2292" x2="119.93" y2="94.2292" stroke="#EA453A" stroke-width="4"/>
</svg>
